<?xml version="1.0" standalone="no"?>
<!DOCTYPE svg PUBLIC "-//W3C//DTD SVG 1.1//EN" "http://www.w3.org/Graphics/SVG/1.1/DTD/svg11.dtd">
<svg xmlns="http://www.w3.org/2000/svg" xmlns:xlink="http://www.w3.org/1999/xlink" width="810" zoomAndPan="magnify" viewBox="0 0 810 809.999993" height="810" preserveAspectRatio="xMidYMid meet" version="1.0"><defs><clipPath id="93b8f0967a"><path d="M 124.460938 304.523438 L 190.722656 304.523438 L 190.722656 370.785156 L 124.460938 370.785156 Z M 124.460938 304.523438 " clip-rule="nonzero"/></clipPath><clipPath id="c75a9c9325"><path d="M 76 389 L 136 389 L 136 449 L 76 449 Z M 76 389 " clip-rule="nonzero"/></clipPath><clipPath id="cab054b59d"><path d="M 150.976562 410.457031 L 97.09375 464.339844 L 71.324219 438.570312 L 125.207031 384.6875 Z M 150.976562 410.457031 " clip-rule="nonzero"/></clipPath><clipPath id="33391b5e57"><path d="M 150.976562 410.457031 L 97.09375 464.339844 L 71.324219 438.570312 L 125.207031 384.6875 Z M 150.976562 410.457031 " clip-rule="nonzero"/></clipPath><clipPath id="a537189dd5"><path d="M 150.976562 410.457031 L 97.09375 464.339844 L 71.324219 438.570312 L 125.207031 384.6875 Z M 150.976562 410.457031 " clip-rule="nonzero"/></clipPath><clipPath id="c79cbf4945"><path d="M 382.566406 302 L 384.738281 302 L 384.738281 509 L 382.566406 509 Z M 382.566406 302 " clip-rule="nonzero"/></clipPath></defs><g clip-path="url(#93b8f0967a)"><path fill="#000000" d="M 190.101562 337.34375 C 190.101562 338.417969 190.050781 339.492188 189.945312 340.5625 C 189.839844 341.628906 189.679688 342.691406 189.472656 343.746094 C 189.261719 344.800781 189 345.84375 188.6875 346.871094 C 188.375 347.898438 188.015625 348.910156 187.601562 349.902344 C 187.191406 350.898438 186.734375 351.867188 186.226562 352.816406 C 185.71875 353.761719 185.167969 354.683594 184.570312 355.578125 C 183.972656 356.472656 183.332031 357.332031 182.652344 358.164062 C 181.96875 358.996094 181.25 359.792969 180.488281 360.550781 C 179.730469 361.3125 178.933594 362.03125 178.101562 362.714844 C 177.273438 363.394531 176.410156 364.035156 175.515625 364.632812 C 174.621094 365.230469 173.699219 365.78125 172.753906 366.289062 C 171.804688 366.796875 170.835938 367.253906 169.839844 367.664062 C 168.847656 368.078125 167.835938 368.4375 166.808594 368.75 C 165.78125 369.0625 164.738281 369.324219 163.683594 369.53125 C 162.628906 369.742188 161.570312 369.898438 160.5 370.003906 C 159.429688 370.109375 158.355469 370.164062 157.28125 370.164062 C 156.207031 370.164062 155.136719 370.109375 154.066406 370.003906 C 152.996094 369.898438 151.933594 369.742188 150.878906 369.53125 C 149.824219 369.324219 148.785156 369.0625 147.753906 368.75 C 146.726562 368.4375 145.714844 368.078125 144.722656 367.664062 C 143.730469 367.253906 142.757812 366.796875 141.8125 366.289062 C 140.863281 365.78125 139.941406 365.230469 139.046875 364.632812 C 138.15625 364.035156 137.292969 363.394531 136.460938 362.714844 C 135.632812 362.03125 134.835938 361.3125 134.074219 360.550781 C 133.316406 359.792969 132.59375 358.996094 131.914062 358.164062 C 131.230469 357.332031 130.589844 356.472656 129.992188 355.578125 C 129.398438 354.683594 128.84375 353.761719 128.339844 352.816406 C 127.832031 351.867188 127.371094 350.898438 126.960938 349.902344 C 126.550781 348.910156 126.1875 347.898438 125.875 346.871094 C 125.5625 345.84375 125.304688 344.800781 125.09375 343.746094 C 124.882812 342.691406 124.726562 341.628906 124.621094 340.5625 C 124.515625 339.492188 124.460938 338.417969 124.460938 337.34375 C 124.460938 336.269531 124.515625 335.195312 124.621094 334.128906 C 124.726562 333.058594 124.882812 331.996094 125.09375 330.941406 C 125.304688 329.886719 125.5625 328.847656 125.875 327.816406 C 126.1875 326.789062 126.550781 325.777344 126.960938 324.785156 C 127.371094 323.792969 127.832031 322.820312 128.339844 321.875 C 128.84375 320.925781 129.398438 320.003906 129.992188 319.109375 C 130.589844 318.21875 131.230469 317.355469 131.914062 316.523438 C 132.59375 315.691406 133.316406 314.898438 134.074219 314.136719 C 134.835938 313.378906 135.632812 312.65625 136.460938 311.972656 C 137.292969 311.292969 138.15625 310.652344 139.046875 310.054688 C 139.941406 309.457031 140.863281 308.90625 141.8125 308.398438 C 142.757812 307.894531 143.730469 307.433594 144.722656 307.023438 C 145.714844 306.613281 146.726562 306.25 147.753906 305.9375 C 148.785156 305.625 149.824219 305.363281 150.878906 305.15625 C 151.933594 304.945312 152.996094 304.789062 154.066406 304.683594 C 155.136719 304.578125 156.207031 304.523438 157.28125 304.523438 C 158.355469 304.523438 159.429688 304.578125 160.5 304.683594 C 161.570312 304.789062 162.628906 304.945312 163.683594 305.15625 C 164.738281 305.363281 165.78125 305.625 166.808594 305.9375 C 167.835938 306.25 168.847656 306.613281 169.839844 307.023438 C 170.835938 307.433594 171.804688 307.894531 172.753906 308.398438 C 173.699219 308.90625 174.621094 309.457031 175.515625 310.054688 C 176.410156 310.652344 177.273438 311.292969 178.101562 311.972656 C 178.933594 312.65625 179.730469 313.378906 180.488281 314.136719 C 181.25 314.898438 181.96875 315.691406 182.652344 316.523438 C 183.332031 317.355469 183.972656 318.21875 184.570312 319.109375 C 185.167969 320.003906 185.71875 320.925781 186.226562 321.875 C 186.734375 322.820312 187.191406 323.792969 187.601562 324.785156 C 188.015625 325.777344 188.375 326.789062 188.6875 327.816406 C 189 328.847656 189.261719 329.886719 189.472656 330.941406 C 189.679688 331.996094 189.839844 333.058594 189.945312 334.128906 C 190.050781 335.195312 190.101562 336.269531 190.101562 337.34375 Z M 190.101562 337.34375 " fill-opacity="1" fill-rule="nonzero"/></g><path fill="#000000" d="M 296.5625 348.410156 C 295.320312 348.410156 294.128906 348.175781 292.980469 347.707031 C 291.832031 347.238281 290.816406 346.570312 289.9375 345.703125 C 289.214844 344.988281 288.457031 344.308594 287.664062 343.667969 C 286.875 343.027344 286.050781 342.425781 285.203125 341.867188 C 284.351562 341.304688 283.472656 340.785156 282.570312 340.308594 C 281.671875 339.832031 280.746094 339.402344 279.800781 339.015625 C 278.855469 338.628906 277.894531 338.289062 276.917969 337.996094 C 275.9375 337.703125 274.949219 337.457031 273.945312 337.261719 C 272.945312 337.0625 271.933594 336.914062 270.917969 336.816406 C 269.898438 336.71875 268.878906 336.667969 267.855469 336.667969 C 266.835938 336.667969 265.816406 336.71875 264.796875 336.816406 C 263.78125 336.914062 262.769531 337.0625 261.769531 337.261719 C 260.765625 337.457031 259.777344 337.703125 258.796875 337.996094 C 257.820312 338.289062 256.859375 338.628906 255.914062 339.015625 C 254.96875 339.402344 254.042969 339.832031 253.144531 340.308594 C 252.242188 340.785156 251.363281 341.304688 250.511719 341.867188 C 249.664062 342.425781 248.839844 343.027344 248.050781 343.667969 C 247.257812 344.308594 246.5 344.988281 245.777344 345.703125 C 245.339844 346.132812 244.863281 346.519531 244.351562 346.855469 C 243.835938 347.195312 243.292969 347.480469 242.722656 347.710938 C 242.152344 347.945312 241.566406 348.121094 240.960938 348.238281 C 240.355469 348.355469 239.746094 348.414062 239.128906 348.410156 C 238.511719 348.410156 237.902344 348.347656 237.296875 348.226562 C 236.691406 348.105469 236.105469 347.929688 235.535156 347.695312 C 234.964844 347.457031 234.425781 347.171875 233.914062 346.828125 C 233.402344 346.488281 232.929688 346.101562 232.492188 345.667969 C 232.058594 345.234375 231.671875 344.765625 231.328125 344.253906 C 230.988281 343.746094 230.699219 343.207031 230.464844 342.644531 C 230.230469 342.078125 230.054688 341.496094 229.933594 340.894531 C 229.816406 340.296875 229.757812 339.691406 229.757812 339.082031 C 229.761719 338.46875 229.824219 337.863281 229.945312 337.265625 C 230.066406 336.664062 230.246094 336.085938 230.484375 335.519531 C 230.722656 334.957031 231.011719 334.421875 231.355469 333.914062 C 231.699219 333.40625 232.089844 332.9375 232.527344 332.507812 C 233.6875 331.363281 234.898438 330.28125 236.164062 329.253906 C 237.433594 328.230469 238.746094 327.269531 240.109375 326.371094 C 241.46875 325.472656 242.871094 324.644531 244.316406 323.882812 C 245.757812 323.121094 247.234375 322.429688 248.746094 321.8125 C 250.257812 321.195312 251.796875 320.652344 253.363281 320.183594 C 254.925781 319.714844 256.511719 319.320312 258.117188 319.007812 C 259.71875 318.691406 261.335938 318.453125 262.964844 318.296875 C 264.589844 318.136719 266.222656 318.058594 267.855469 318.058594 C 269.492188 318.058594 271.125 318.136719 272.75 318.296875 C 274.378906 318.453125 275.996094 318.691406 277.597656 319.007812 C 279.203125 319.320312 280.785156 319.714844 282.351562 320.183594 C 283.917969 320.652344 285.457031 321.195312 286.96875 321.8125 C 288.480469 322.429688 289.957031 323.121094 291.398438 323.882812 C 292.84375 324.644531 294.246094 325.472656 295.605469 326.371094 C 296.96875 327.269531 298.28125 328.230469 299.550781 329.253906 C 300.816406 330.28125 302.027344 331.363281 303.1875 332.507812 C 303.847656 333.15625 304.398438 333.886719 304.835938 334.699219 C 305.277344 335.507812 305.589844 336.367188 305.773438 337.269531 C 305.957031 338.171875 306.003906 339.085938 305.914062 340 C 305.824219 340.917969 305.601562 341.800781 305.246094 342.65625 C 304.890625 343.507812 304.417969 344.289062 303.828125 345 C 303.242188 345.714844 302.558594 346.328125 301.785156 346.839844 C 301.011719 347.351562 300.183594 347.742188 299.292969 348.007812 C 298.402344 348.277344 297.492188 348.410156 296.5625 348.410156 Z M 296.5625 348.410156 " fill-opacity="1" fill-rule="nonzero"/><path fill="#000000" d="M 312.667969 416.507812 C 310.382812 416.503906 308.183594 416.929688 306.066406 417.792969 C 303.953125 418.652344 302.085938 419.882812 300.46875 421.480469 C 299.082031 422.839844 297.667969 424.167969 296.21875 425.460938 C 294.769531 426.753906 293.289062 428.011719 291.777344 429.234375 C 290.265625 430.457031 288.722656 431.640625 287.152344 432.785156 C 285.582031 433.933594 283.984375 435.042969 282.359375 436.113281 C 280.734375 437.179688 279.085938 438.210938 277.410156 439.199219 C 275.734375 440.191406 274.035156 441.140625 272.308594 442.046875 C 270.585938 442.953125 268.84375 443.820312 267.078125 444.640625 C 265.3125 445.464844 263.527344 446.246094 261.722656 446.980469 C 259.917969 447.71875 258.097656 448.410156 256.257812 449.058594 C 254.417969 449.707031 252.566406 450.3125 250.699219 450.871094 C 248.828125 451.429688 246.949219 451.941406 245.054688 452.410156 C 243.160156 452.875 241.257812 453.296875 239.34375 453.671875 C 237.425781 454.050781 235.503906 454.378906 233.574219 454.660156 C 231.644531 454.941406 229.707031 455.179688 227.761719 455.367188 C 225.820312 455.554688 223.875 455.695312 221.925781 455.792969 C 219.976562 455.886719 218.023438 455.933594 216.074219 455.933594 C 214.121094 455.933594 212.171875 455.886719 210.222656 455.792969 C 208.273438 455.695312 206.324219 455.554688 204.382812 455.367188 C 202.441406 455.179688 200.503906 454.941406 198.574219 454.660156 C 196.640625 454.378906 194.71875 454.050781 192.804688 453.671875 C 190.890625 453.296875 188.984375 452.875 187.09375 452.410156 C 185.199219 451.941406 183.316406 451.429688 181.449219 450.871094 C 179.582031 450.3125 177.726562 449.707031 175.886719 449.058594 C 174.050781 448.410156 172.230469 447.71875 170.425781 446.980469 C 168.621094 446.246094 166.835938 445.464844 165.070312 444.640625 C 163.304688 443.820312 161.558594 442.953125 159.835938 442.046875 C 158.113281 441.140625 156.414062 440.191406 154.738281 439.199219 C 153.0625 438.210938 151.410156 437.179688 149.785156 436.113281 C 148.160156 435.042969 146.5625 433.933594 144.992188 432.785156 C 143.421875 431.640625 141.882812 430.457031 140.371094 429.234375 C 138.859375 428.011719 137.378906 426.753906 135.929688 425.460938 C 134.480469 424.167969 133.0625 422.839844 131.679688 421.480469 C 131.285156 421.0625 130.871094 420.667969 130.4375 420.292969 C 130 419.914062 129.550781 419.5625 129.078125 419.234375 C 128.609375 418.902344 128.121094 418.597656 127.621094 418.3125 C 127.121094 418.03125 126.605469 417.773438 126.078125 417.542969 C 125.550781 417.3125 125.011719 417.109375 124.464844 416.929688 C 123.917969 416.753906 123.359375 416.605469 122.796875 416.480469 C 122.234375 416.359375 121.664062 416.265625 121.09375 416.199219 C 120.519531 416.132812 119.945312 416.097656 119.367188 416.085938 C 118.789062 416.078125 118.214844 416.097656 117.640625 416.148438 C 117.066406 416.195312 116.496094 416.273438 115.929688 416.378906 C 115.359375 416.484375 114.800781 416.617188 114.246094 416.777344 C 113.695312 416.9375 113.148438 417.125 112.617188 417.339844 C 112.082031 417.554688 111.558594 417.796875 111.050781 418.0625 C 110.539062 418.332031 110.042969 418.621094 109.5625 418.9375 C 109.082031 419.253906 108.621094 419.59375 108.175781 419.957031 C 107.730469 420.316406 107.300781 420.699219 106.894531 421.105469 C 106.488281 421.511719 106.101562 421.933594 105.738281 422.375 C 105.375 422.820312 105.035156 423.277344 104.71875 423.753906 C 104.402344 424.230469 104.109375 424.722656 103.839844 425.230469 C 103.574219 425.734375 103.332031 426.253906 103.117188 426.78125 C 102.902344 427.3125 102.714844 427.851562 102.554688 428.398438 C 102.394531 428.945312 102.261719 429.5 102.160156 430.0625 C 102.054688 430.625 101.980469 431.1875 101.933594 431.757812 C 101.886719 432.328125 101.871094 432.898438 101.882812 433.46875 C 101.894531 434.039062 101.933594 434.605469 102.003906 435.171875 C 102.074219 435.738281 102.171875 436.300781 102.296875 436.859375 C 102.421875 437.414062 102.578125 437.964844 102.757812 438.503906 C 102.941406 439.046875 103.148438 439.578125 103.386719 440.097656 C 103.621094 440.621094 103.882812 441.125 104.171875 441.621094 C 104.460938 442.117188 104.769531 442.59375 105.105469 443.058594 C 105.445312 443.523438 105.800781 443.96875 106.183594 444.398438 C 106.566406 444.824219 106.96875 445.234375 107.390625 445.621094 C 109.171875 447.375 110.996094 449.085938 112.863281 450.753906 C 114.730469 452.417969 116.636719 454.039062 118.582031 455.613281 C 120.53125 457.1875 122.515625 458.710938 124.535156 460.1875 C 126.558594 461.667969 128.617188 463.09375 130.710938 464.472656 C 132.800781 465.851562 134.929688 467.175781 137.085938 468.453125 C 139.246094 469.726562 141.433594 470.949219 143.652344 472.121094 C 145.871094 473.289062 148.117188 474.402344 150.394531 475.464844 C 152.667969 476.523438 154.964844 477.527344 157.289062 478.476562 C 159.613281 479.425781 161.960938 480.320312 164.328125 481.15625 C 166.695312 481.988281 169.082031 482.765625 171.488281 483.488281 C 173.894531 484.207031 176.320312 484.867188 178.757812 485.472656 C 181.199219 486.074219 183.648438 486.617188 186.117188 487.101562 C 188.582031 487.585938 191.058594 488.007812 193.546875 488.371094 C 196.035156 488.734375 198.527344 489.039062 201.03125 489.28125 C 203.53125 489.523438 206.039062 489.707031 208.550781 489.828125 C 211.0625 489.949219 213.574219 490.011719 216.085938 490.011719 C 218.601562 490.011719 221.113281 489.949219 223.625 489.828125 C 226.136719 489.707031 228.644531 489.523438 231.144531 489.28125 C 233.648438 489.039062 236.140625 488.734375 238.628906 488.371094 C 241.117188 488.007812 243.59375 487.585938 246.058594 487.101562 C 248.523438 486.617188 250.976562 486.074219 253.417969 485.472656 C 255.855469 484.867188 258.277344 484.207031 260.6875 483.488281 C 263.09375 482.765625 265.480469 481.988281 267.847656 481.15625 C 270.214844 480.320312 272.5625 479.425781 274.886719 478.476562 C 277.210938 477.527344 279.507812 476.523438 281.78125 475.464844 C 284.058594 474.402344 286.304688 473.289062 288.523438 472.121094 C 290.742188 470.949219 292.929688 469.726562 295.089844 468.453125 C 297.246094 467.175781 299.371094 465.851562 301.464844 464.472656 C 303.558594 463.09375 305.617188 461.667969 307.636719 460.1875 C 309.660156 458.710938 311.644531 457.1875 313.59375 455.613281 C 315.539062 454.039062 317.445312 452.417969 319.3125 450.753906 C 321.179688 449.085938 323.003906 447.375 324.785156 445.621094 C 325.386719 445.027344 325.9375 444.394531 326.445312 443.722656 C 326.953125 443.050781 327.40625 442.34375 327.804688 441.605469 C 328.207031 440.867188 328.550781 440.101562 328.835938 439.3125 C 329.125 438.523438 329.351562 437.714844 329.515625 436.894531 C 329.683594 436.070312 329.789062 435.242188 329.832031 434.402344 C 329.871094 433.566406 329.851562 432.726562 329.769531 431.894531 C 329.6875 431.058594 329.542969 430.234375 329.339844 429.417969 C 329.132812 428.605469 328.867188 427.8125 328.542969 427.035156 C 328.21875 426.261719 327.839844 425.511719 327.402344 424.792969 C 326.96875 424.074219 326.480469 423.390625 325.941406 422.742188 C 325.40625 422.09375 324.824219 421.488281 324.195312 420.921875 C 323.566406 420.359375 322.898438 419.84375 322.195312 419.378906 C 321.488281 418.914062 320.753906 418.5 319.984375 418.144531 C 319.21875 417.785156 318.429688 417.484375 317.617188 417.242188 C 316.804688 416.996094 315.980469 416.8125 315.140625 416.691406 C 314.304688 416.570312 313.460938 416.507812 312.613281 416.507812 Z M 312.667969 416.507812 " fill-opacity="1" fill-rule="nonzero"/><g clip-path="url(#c75a9c9325)"><g clip-path="url(#cab054b59d)"><g clip-path="url(#33391b5e57)"><g clip-path="url(#a537189dd5)"><path fill="#000000" d="M 79.621094 431.445312 C 80.566406 430.5 81.652344 429.765625 82.882812 429.242188 C 84.109375 428.722656 85.386719 428.453125 86.710938 428.4375 C 87.632812 428.425781 88.550781 428.367188 89.46875 428.265625 C 90.386719 428.164062 91.296875 428.015625 92.199219 427.824219 C 93.105469 427.632812 94 427.398438 94.882812 427.121094 C 95.765625 426.84375 96.636719 426.523438 97.488281 426.160156 C 98.34375 425.796875 99.179688 425.394531 99.996094 424.949219 C 100.8125 424.503906 101.605469 424.023438 102.375 423.503906 C 103.148438 422.980469 103.890625 422.425781 104.609375 421.832031 C 105.328125 421.242188 106.015625 420.617188 106.675781 419.957031 C 107.332031 419.300781 107.957031 418.613281 108.550781 417.894531 C 109.140625 417.175781 109.699219 416.429688 110.21875 415.660156 C 110.738281 414.890625 111.222656 414.097656 111.664062 413.28125 C 112.109375 412.464844 112.511719 411.628906 112.875 410.773438 C 113.238281 409.921875 113.558594 409.050781 113.835938 408.167969 C 114.113281 407.285156 114.347656 406.390625 114.539062 405.484375 C 114.730469 404.582031 114.878906 403.667969 114.980469 402.753906 C 115.082031 401.835938 115.140625 400.917969 115.152344 399.996094 C 115.164062 399.335938 115.234375 398.683594 115.371094 398.039062 C 115.507812 397.390625 115.707031 396.761719 115.96875 396.152344 C 116.226562 395.542969 116.542969 394.960938 116.917969 394.410156 C 117.289062 393.859375 117.710938 393.351562 118.183594 392.882812 C 118.65625 392.410156 119.167969 391.992188 119.71875 391.621094 C 120.269531 391.25 120.851562 390.9375 121.464844 390.679688 C 122.074219 390.421875 122.707031 390.226562 123.351562 390.09375 C 124 389.960938 124.652344 389.890625 125.3125 389.882812 C 125.96875 389.878906 126.621094 389.9375 127.265625 390.058594 C 127.90625 390.183594 128.53125 390.367188 129.136719 390.613281 C 129.742188 390.859375 130.316406 391.164062 130.859375 391.523438 C 131.398438 391.886719 131.902344 392.296875 132.359375 392.757812 C 132.820312 393.21875 133.226562 393.722656 133.585938 394.265625 C 133.945312 394.808594 134.246094 395.386719 134.488281 395.992188 C 134.734375 396.597656 134.914062 397.222656 135.035156 397.867188 C 135.15625 398.511719 135.210938 399.164062 135.203125 399.820312 C 135.179688 401.398438 135.082031 402.96875 134.910156 404.539062 C 134.734375 406.105469 134.484375 407.664062 134.15625 409.214844 C 133.828125 410.761719 133.425781 412.292969 132.949219 413.804688 C 132.476562 415.316406 131.925781 416.800781 131.304688 418.261719 C 130.683594 419.722656 129.996094 421.152344 129.238281 422.550781 C 128.476562 423.945312 127.652344 425.304688 126.761719 426.625 C 125.871094 427.941406 124.921875 429.214844 123.90625 430.445312 C 122.894531 431.671875 121.824219 432.851562 120.699219 433.976562 C 119.570312 435.101562 118.394531 436.171875 117.167969 437.1875 C 115.9375 438.199219 114.664062 439.152344 113.34375 440.039062 C 112.027344 440.929688 110.667969 441.757812 109.273438 442.515625 C 107.875 443.273438 106.445312 443.964844 104.984375 444.585938 C 103.523438 445.203125 102.035156 445.753906 100.523438 446.230469 C 99.011719 446.707031 97.484375 447.105469 95.933594 447.433594 C 94.386719 447.761719 92.828125 448.011719 91.257812 448.1875 C 89.691406 448.363281 88.117188 448.460938 86.542969 448.480469 C 85.550781 448.492188 84.582031 448.363281 83.632812 448.085938 C 82.6875 447.8125 81.804688 447.402344 80.984375 446.863281 C 80.164062 446.320312 79.441406 445.671875 78.820312 444.914062 C 78.199219 444.152344 77.699219 443.316406 77.332031 442.40625 C 76.960938 441.492188 76.730469 440.542969 76.644531 439.558594 C 76.554688 438.570312 76.613281 437.589844 76.820312 436.613281 C 77.023438 435.640625 77.363281 434.710938 77.839844 433.832031 C 78.316406 432.949219 78.910156 432.15625 79.621094 431.445312 Z M 79.621094 431.445312 " fill-opacity="1" fill-rule="nonzero"/></g></g></g></g><path fill="#000000" d="M 445.152344 488.890625 L 445.152344 419.496094 L 472.761719 419.496094 C 479.894531 419.496094 485.347656 421.164062 489.105469 424.503906 C 492.875 427.835938 494.769531 432.125 494.769531 437.347656 C 494.769531 441.714844 493.605469 445.203125 491.277344 447.8125 C 488.957031 450.414062 486.132812 452.183594 482.78125 453.109375 C 486.710938 453.90625 489.941406 455.871094 492.496094 459.015625 C 495.0625 462.144531 496.34375 465.789062 496.34375 469.960938 C 496.34375 475.453125 494.378906 479.984375 490.449219 483.558594 C 486.523438 487.117188 480.949219 488.890625 473.757812 488.890625 Z M 457.738281 448.648438 L 470.902344 448.648438 C 474.441406 448.648438 477.152344 447.824219 479.042969 446.167969 C 480.945312 444.511719 481.894531 442.167969 481.894531 439.121094 C 481.894531 436.21875 480.949219 433.921875 479.082031 432.238281 C 477.226562 430.554688 474.425781 429.714844 470.695312 429.714844 L 457.738281 429.714844 Z M 457.738281 478.597656 L 471.789062 478.597656 C 475.519531 478.597656 478.414062 477.71875 480.472656 475.96875 C 482.535156 474.214844 483.566406 471.746094 483.566406 468.566406 C 483.566406 465.328125 482.484375 462.785156 480.324219 460.9375 C 478.160156 459.082031 475.242188 458.15625 471.582031 458.15625 L 457.738281 458.15625 Z M 457.738281 478.597656 " fill-opacity="1" fill-rule="nonzero"/><path fill="#000000" d="M 518.929688 488.890625 L 518.929688 419.496094 L 544.179688 419.496094 C 549.679688 419.496094 554.210938 420.445312 557.78125 422.332031 C 561.359375 424.207031 564.03125 426.753906 565.800781 429.96875 C 567.558594 433.167969 568.441406 436.714844 568.441406 440.625 C 568.441406 444.847656 567.347656 448.710938 565.164062 452.214844 C 562.96875 455.71875 559.546875 458.261719 554.890625 459.851562 L 569.148438 488.890625 L 554.703125 488.890625 L 541.929688 461.535156 L 531.515625 461.535156 L 531.515625 488.890625 Z M 531.515625 452.214844 L 543.394531 452.214844 C 547.582031 452.214844 550.660156 451.191406 552.632812 449.148438 C 554.601562 447.097656 555.589844 444.382812 555.589844 441.015625 C 555.589844 437.714844 554.625 435.066406 552.671875 433.09375 C 550.746094 431.101562 547.621094 430.113281 543.292969 430.113281 L 531.515625 430.113281 Z M 531.515625 452.214844 " fill-opacity="1" fill-rule="nonzero"/><path fill="#000000" d="M 591.921875 488.890625 L 591.921875 419.496094 L 636.828125 419.496094 L 636.828125 429.714844 L 604.503906 429.714844 L 604.503906 448.757812 L 633.875 448.757812 L 633.875 458.660156 L 604.503906 458.660156 L 604.503906 478.675781 L 636.828125 478.675781 L 636.828125 488.890625 Z M 591.921875 488.890625 " fill-opacity="1" fill-rule="nonzero"/><path fill="#000000" d="M 660.496094 488.890625 L 660.496094 419.496094 L 705.398438 419.496094 L 705.398438 429.714844 L 673.078125 429.714844 L 673.078125 448.757812 L 702.441406 448.757812 L 702.441406 458.660156 L 673.078125 458.660156 L 673.078125 478.675781 L 705.398438 478.675781 L 705.398438 488.890625 Z M 660.496094 488.890625 " fill-opacity="1" fill-rule="nonzero"/><path fill="#000000" d="M 533.4375 372.445312 C 539.433594 372.445312 545.429688 372.109375 551.429688 371.449219 C 553.945312 363.476562 555.203125 358.609375 555.203125 356.847656 C 555.203125 349.207031 551.53125 344.070312 544.195312 341.429688 C 539.179688 339.710938 530.589844 338.851562 518.429688 338.851562 C 504.035156 338.851562 489.832031 340.289062 475.820312 343.148438 C 462.015625 345.941406 455.113281 348.742188 455.113281 351.558594 C 455.113281 353.128906 457.035156 355.207031 460.878906 357.796875 C 462.761719 359.089844 465.261719 360.464844 468.382812 361.910156 C 471.5 363.355469 475.402344 364.824219 480.089844 366.316406 C 484.777344 367.808594 491.835938 369.199219 501.273438 370.5 C 510.703125 371.792969 521.421875 372.445312 533.4375 372.445312 Z M 610.8125 352.507812 L 611.035156 352.210938 C 611.15625 352.046875 611.25 351.90625 611.332031 351.78125 C 609.171875 351.394531 606.628906 351.195312 603.691406 351.195312 C 600.582031 351.195312 597.660156 351.027344 594.921875 350.675781 C 592.171875 350.285156 589.839844 349.515625 587.914062 348.371094 C 585.996094 347.285156 585.042969 345.289062 585.042969 342.378906 C 585.042969 338.101562 585.902344 333.941406 587.617188 329.902344 C 589.304688 325.910156 591.507812 322.363281 594.21875 319.253906 C 596.886719 316.152344 599.761719 313.683594 602.855469 311.839844 C 605.957031 310.03125 608.964844 309.128906 611.875 309.128906 C 614.027344 309.128906 615.804688 309.679688 617.207031 310.777344 C 618.664062 311.925781 619.398438 313.574219 619.398438 315.726562 C 619.398438 316.042969 619.21875 316.789062 618.859375 317.964844 C 618.460938 319.140625 618.03125 320.335938 617.570312 321.539062 C 617.101562 322.804688 616.671875 323.96875 616.28125 325.019531 C 616.082031 325.5625 615.925781 325.984375 615.804688 326.285156 C 615.683594 326.589844 615.609375 326.753906 615.582031 326.78125 C 615.140625 327.765625 614.640625 328.25 614.089844 328.25 C 613.785156 328.25 613.535156 327.980469 613.34375 327.4375 C 613.097656 326.882812 612.804688 326.308594 612.460938 325.71875 C 612.066406 325.132812 611.566406 324.582031 610.96875 324.070312 C 610.382812 323.527344 609.5 323.253906 608.324219 323.253906 C 606.480469 323.253906 604.71875 323.683594 603.035156 324.542969 C 601.316406 325.402344 599.667969 326.464844 598.085938 327.730469 C 596.558594 329.03125 595.226562 330.421875 594.082031 331.914062 C 593 333.4375 592.171875 334.785156 591.621094 335.960938 C 591.621094 336.71875 592.5 337.328125 594.265625 337.789062 C 596.027344 338.257812 598.140625 338.625 600.617188 338.898438 C 603.085938 339.1875 605.640625 339.40625 608.277344 339.554688 C 610.867188 339.707031 613.027344 339.902344 614.742188 340.140625 C 616.472656 340.339844 617.648438 340.988281 618.269531 342.085938 C 618.929688 343.140625 619.265625 344.414062 619.265625 345.90625 C 619.265625 347.324219 619.050781 348.910156 618.632812 350.675781 C 618.390625 351.578125 618.132812 352.460938 617.863281 353.320312 L 617.796875 353.320312 C 617.207031 355.207031 616.664062 356.699219 616.167969 357.796875 C 615.457031 359.207031 614.777344 360.421875 614.132812 361.433594 C 613.484375 362.457031 612.878906 363.300781 612.324219 363.964844 C 611.902344 364.519531 610.957031 365.503906 609.5 366.90625 C 608.054688 368.289062 605.996094 369.84375 603.328125 371.5625 L 603.101562 371.675781 C 600.3125 373.4375 596.78125 375.269531 592.5 377.167969 C 588.21875 379.078125 583.019531 380.835938 576.90625 382.433594 C 570.785156 384.046875 563.710938 385.363281 555.679688 386.390625 C 554.261719 386.582031 552.808594 386.742188 551.316406 386.867188 L 545.914062 399.457031 C 541.980469 408.589844 539.460938 413.15625 538.363281 413.15625 C 537.894531 413.15625 537.664062 412.757812 537.664062 411.980469 C 537.664062 411.074219 540.742188 402.835938 546.910156 387.273438 C 541.132812 387.707031 534.871094 387.925781 528.125 387.925781 C 518.550781 387.925781 509.941406 387.453125 502.289062 386.503906 C 494.648438 385.566406 487.964844 384.558594 482.238281 383.472656 C 476.507812 382.402344 471.777344 381.238281 468.042969 379.972656 C 464.320312 378.714844 461.636719 377.722656 459.996094 376.988281 C 459.328125 376.699219 458.082031 376.128906 456.246094 375.269531 C 451.914062 372.71875 448.796875 369.878906 446.886719 366.746094 C 445.195312 364.078125 444.355469 361.445312 444.355469 358.859375 C 444.355469 358.421875 444.367188 358.011719 444.398438 357.613281 C 444.398438 347.214844 451.65625 339.046875 466.167969 333.089844 C 480.011719 327.390625 498.21875 324.542969 520.777344 324.542969 C 538.511719 324.542969 550.199219 325.96875 555.835938 328.816406 C 561.488281 331.664062 564.3125 336.445312 564.3125 343.148438 C 564.3125 346.527344 563.566406 350.820312 562.078125 356.03125 C 560.972656 359.722656 559.839844 363.40625 558.664062 367.085938 L 557.554688 370.679688 C 564.183594 370.011719 569.613281 369.210938 573.851562 368.261719 C 579.261719 367.050781 584.070312 365.71875 588.273438 364.261719 C 590.96875 363.355469 593.441406 362.433594 595.6875 361.503906 C 596.820312 361.035156 597.910156 360.558594 598.964844 360.078125 C 601.917969 358.710938 604.285156 357.492188 606.0625 356.417969 C 607.855469 355.332031 609.390625 354.066406 610.675781 352.621094 Z M 610.8125 352.507812 " fill-opacity="1" fill-rule="nonzero"/><path fill="#000000" d="M 662.597656 358.972656 C 661.613281 361.441406 660.304688 363.910156 658.664062 366.386719 C 656.972656 368.808594 655.226562 371.085938 653.421875 373.210938 C 651.578125 375.292969 649.769531 376.976562 647.996094 378.277344 C 646.230469 379.523438 644.761719 380.152344 643.585938 380.152344 C 642.964844 380.152344 641.574219 379.816406 639.40625 379.15625 C 637.292969 378.445312 634.917969 377.640625 632.285156 376.738281 C 629.664062 375.835938 627.097656 374.914062 624.578125 373.980469 C 622.078125 373.078125 620.054688 372.339844 618.519531 371.789062 C 617.46875 371.589844 616.9375 371.066406 616.9375 370.207031 C 616.9375 369.347656 617.367188 368.917969 618.226562 368.917969 C 619.402344 369.15625 620.597656 369.3125 621.820312 369.390625 C 623.074219 369.511719 624.285156 369.574219 625.457031 369.574219 C 631.789062 369.574219 637.691406 368.238281 643.179688 365.570312 C 648.707031 362.90625 653.578125 358.824219 657.78125 353.320312 C 656.789062 351.828125 655.800781 350.421875 654.820312 349.09375 C 653.882812 347.753906 652.300781 345.847656 650.074219 343.375 L 652.582031 328.90625 C 652.820312 328.15625 653.160156 327.777344 653.601562 327.777344 C 654.019531 327.777344 654.625 328.269531 655.410156 329.246094 C 656.1875 330.195312 657.058594 331.296875 658.007812 332.546875 C 658.914062 333.765625 659.792969 334.964844 660.652344 336.140625 C 661.511719 337.316406 662.101562 338.1875 662.417969 338.738281 C 663.910156 340.972656 665.105469 342.34375 666.011719 342.855469 C 666.914062 343.324219 668.441406 343.554688 670.597656 343.554688 L 672.722656 343.554688 L 672.722656 358.972656 Z M 662.597656 358.972656 " fill-opacity="1" fill-rule="nonzero"/><path fill="#000000" d="M 685.28125 386.097656 C 682.191406 383.457031 679.472656 380.828125 677.121094 378.207031 C 679.472656 375.414062 682.152344 372.628906 685.167969 369.84375 C 688.273438 372.476562 691 375.109375 693.351562 377.734375 C 690.640625 380.863281 687.949219 383.65625 685.28125 386.097656 Z M 707.707031 339.371094 C 707.707031 340.320312 707.507812 341.519531 707.117188 342.96875 C 706.769531 344.414062 706.304688 345.945312 705.714844 347.554688 C 705.128906 349.171875 704.5 350.800781 703.839844 352.4375 C 703.207031 354.128906 702.671875 355.660156 702.234375 357.027344 C 701.929688 358.328125 700.976562 358.972656 699.363281 358.972656 L 672.351562 358.972656 C 670.941406 358.972656 669.777344 358.519531 668.871094 357.613281 C 667.984375 356.710938 667.539062 355.558594 667.539062 354.15625 L 667.539062 348.371094 C 667.539062 346.96875 667.984375 345.816406 668.871094 344.910156 C 669.777344 344.007812 670.941406 343.554688 672.351562 343.554688 L 699.363281 343.554688 C 699.121094 342.378906 698.789062 341.167969 698.371094 339.914062 C 697.929688 338.695312 697.496094 337.558594 697.058594 336.503906 C 696.664062 335.328125 696.136719 334.144531 695.476562 332.953125 L 700.292969 319.617188 C 700.609375 318.746094 700.980469 318.304688 701.421875 318.304688 C 701.855469 318.304688 702.222656 318.585938 702.53125 319.140625 C 703.082031 320.078125 703.660156 321.3125 704.246094 322.847656 C 704.835938 324.339844 705.398438 326.03125 705.941406 327.914062 C 706.453125 329.753906 706.871094 331.675781 707.1875 333.675781 C 707.53125 335.636719 707.707031 337.535156 707.707031 339.371094 Z M 707.707031 339.371094 " fill-opacity="1" fill-rule="nonzero"/><g clip-path="url(#c79cbf4945)"><path fill="#000000" d="M 384.71875 302.109375 L 384.71875 508.003906 L 382.5625 508.003906 L 382.5625 302.109375 L 384.71875 302.109375 " fill-opacity="1" fill-rule="nonzero"/></g></svg>