<svg xmlns="http://www.w3.org/2000/svg" xmlns:xlink="http://www.w3.org/1999/xlink" width="500" zoomAndPan="magnify" viewBox="0 0 375 374.999991" height="500" preserveAspectRatio="xMidYMid meet" version="1.0"><defs><clipPath id="20b78e8584"><path d="M 96 154 L 374.636719 154 L 374.636719 374.636719 L 96 374.636719 Z M 96 154 " clip-rule="nonzero"/></clipPath><clipPath id="97feadec4b"><path d="M 4.136719 4.136719 L 213 4.136719 L 213 283 L 4.136719 283 Z M 4.136719 4.136719 " clip-rule="nonzero"/></clipPath></defs><g clip-path="url(#20b78e8584)"><path fill="#903eaf" d="M 363.410156 375 L 108.441406 375 C 107.679688 375 106.925781 374.925781 106.179688 374.777344 C 105.433594 374.628906 104.707031 374.40625 104.003906 374.117188 C 103.300781 373.824219 102.632812 373.46875 102 373.046875 C 101.367188 372.621094 100.785156 372.140625 100.246094 371.605469 C 99.707031 371.066406 99.226562 370.480469 98.804688 369.847656 C 98.382812 369.214844 98.023438 368.546875 97.734375 367.84375 C 97.441406 367.140625 97.222656 366.417969 97.074219 365.667969 C 96.925781 364.921875 96.851562 364.167969 96.851562 363.410156 L 96.851562 166.386719 C 96.851562 165.625 96.925781 164.871094 97.074219 164.125 C 97.222656 163.378906 97.441406 162.65625 97.734375 161.953125 C 98.023438 161.25 98.382812 160.582031 98.804688 159.949219 C 99.226562 159.316406 99.707031 158.730469 100.246094 158.191406 C 100.785156 157.65625 101.367188 157.175781 102 156.75 C 102.632812 156.328125 103.300781 155.972656 104.003906 155.679688 C 104.707031 155.390625 105.433594 155.167969 106.179688 155.019531 C 106.925781 154.871094 107.679688 154.796875 108.441406 154.796875 L 363.410156 154.796875 C 364.167969 154.796875 364.921875 154.871094 365.667969 155.019531 C 366.417969 155.167969 367.140625 155.390625 367.84375 155.679688 C 368.546875 155.972656 369.214844 156.328125 369.847656 156.75 C 370.480469 157.175781 371.066406 157.65625 371.605469 158.191406 C 372.140625 158.730469 372.621094 159.316406 373.046875 159.949219 C 373.46875 160.582031 373.824219 161.25 374.117188 161.953125 C 374.40625 162.65625 374.628906 163.378906 374.777344 164.125 C 374.925781 164.871094 375 165.625 375 166.386719 L 375 363.410156 C 375 364.167969 374.925781 364.921875 374.777344 365.667969 C 374.628906 366.417969 374.40625 367.140625 374.117188 367.84375 C 373.824219 368.546875 373.46875 369.214844 373.046875 369.847656 C 372.621094 370.480469 372.140625 371.066406 371.605469 371.605469 C 371.066406 372.140625 370.480469 372.621094 369.847656 373.046875 C 369.214844 373.46875 368.546875 373.824219 367.84375 374.117188 C 367.140625 374.40625 366.417969 374.628906 365.667969 374.777344 C 364.921875 374.925781 364.167969 375 363.410156 375 Z M 120.03125 351.820312 L 351.820312 351.820312 L 351.820312 177.976562 L 120.03125 177.976562 Z M 120.03125 351.820312 " fill-opacity="1" fill-rule="nonzero"/></g><g clip-path="url(#97feadec4b)"><path fill="#903eaf" d="M 108.441406 282.28125 L 50.492188 282.28125 C 48.976562 282.28125 47.460938 282.207031 45.949219 282.058594 C 44.4375 281.910156 42.9375 281.6875 41.449219 281.390625 C 39.960938 281.09375 38.488281 280.726562 37.035156 280.285156 C 35.582031 279.84375 34.15625 279.335938 32.753906 278.753906 C 31.351562 278.171875 29.980469 277.523438 28.640625 276.808594 C 27.300781 276.09375 26 275.3125 24.738281 274.46875 C 23.476562 273.625 22.257812 272.722656 21.082031 271.757812 C 19.910156 270.796875 18.785156 269.777344 17.714844 268.703125 C 16.640625 267.632812 15.621094 266.507812 14.65625 265.332031 C 13.695312 264.160156 12.792969 262.941406 11.949219 261.679688 C 11.105469 260.417969 10.324219 259.117188 9.609375 257.777344 C 8.894531 256.4375 8.246094 255.066406 7.664062 253.664062 C 7.082031 252.261719 6.570312 250.835938 6.132812 249.382812 C 5.691406 247.929688 5.320312 246.457031 5.027344 244.96875 C 4.730469 243.480469 4.507812 241.980469 4.359375 240.46875 C 4.210938 238.957031 4.136719 237.441406 4.136719 235.925781 L 4.136719 50.492188 C 4.136719 48.976562 4.210938 47.460938 4.359375 45.949219 C 4.507812 44.4375 4.730469 42.9375 5.027344 41.449219 C 5.320312 39.960938 5.691406 38.488281 6.132812 37.035156 C 6.570312 35.582031 7.082031 34.15625 7.664062 32.753906 C 8.246094 31.351562 8.894531 29.980469 9.609375 28.640625 C 10.324219 27.300781 11.105469 26 11.949219 24.738281 C 12.792969 23.476562 13.695312 22.257812 14.65625 21.082031 C 15.621094 19.910156 16.640625 18.785156 17.714844 17.714844 C 18.785156 16.640625 19.910156 15.621094 21.082031 14.65625 C 22.257812 13.695312 23.476562 12.792969 24.738281 11.949219 C 26 11.105469 27.300781 10.324219 28.640625 9.609375 C 29.980469 8.894531 31.351562 8.246094 32.753906 7.664062 C 34.15625 7.082031 35.582031 6.570312 37.035156 6.132812 C 38.488281 5.691406 39.960938 5.320312 41.449219 5.027344 C 42.9375 4.730469 44.4375 4.507812 45.949219 4.359375 C 47.460938 4.210938 48.976562 4.136719 50.492188 4.136719 L 166.386719 4.136719 C 167.90625 4.136719 169.421875 4.210938 170.929688 4.359375 C 172.441406 4.507812 173.941406 4.730469 175.429688 5.027344 C 176.921875 5.320312 178.390625 5.691406 179.84375 6.132812 C 181.296875 6.570312 182.726562 7.082031 184.128906 7.664062 C 185.53125 8.246094 186.902344 8.894531 188.242188 9.609375 C 189.578125 10.324219 190.878906 11.105469 192.144531 11.949219 C 193.40625 12.792969 194.625 13.695312 195.796875 14.65625 C 196.96875 15.621094 198.09375 16.640625 199.167969 17.714844 C 200.242188 18.785156 201.257812 19.910156 202.222656 21.082031 C 203.1875 22.257812 204.089844 23.476562 204.933594 24.738281 C 205.777344 26 206.554688 27.300781 207.273438 28.640625 C 207.988281 29.980469 208.636719 31.351562 209.214844 32.753906 C 209.796875 34.15625 210.308594 35.582031 210.75 37.035156 C 211.191406 38.488281 211.558594 39.960938 211.855469 41.449219 C 212.152344 42.9375 212.375 44.4375 212.523438 45.949219 C 212.671875 47.460938 212.746094 48.972656 212.746094 50.492188 L 212.746094 120.03125 C 212.746094 120.789062 212.671875 121.542969 212.523438 122.289062 C 212.375 123.035156 212.15625 123.761719 211.863281 124.464844 C 211.570312 125.167969 211.214844 125.835938 210.792969 126.46875 C 210.371094 127.101562 209.890625 127.6875 209.351562 128.226562 C 208.8125 128.761719 208.226562 129.242188 207.59375 129.667969 C 206.960938 130.089844 206.292969 130.445312 205.589844 130.738281 C 204.886719 131.027344 204.164062 131.25 203.417969 131.398438 C 202.671875 131.546875 201.917969 131.621094 201.15625 131.621094 C 200.394531 131.621094 199.640625 131.546875 198.894531 131.398438 C 198.148438 131.25 197.425781 131.027344 196.722656 130.738281 C 196.019531 130.445312 195.351562 130.089844 194.71875 129.667969 C 194.085938 129.242188 193.5 128.761719 192.960938 128.226562 C 192.421875 127.6875 191.941406 127.101562 191.519531 126.46875 C 191.097656 125.835938 190.738281 125.167969 190.449219 124.464844 C 190.15625 123.761719 189.9375 123.035156 189.789062 122.289062 C 189.640625 121.542969 189.566406 120.789062 189.566406 120.03125 L 189.566406 50.492188 C 189.566406 49.734375 189.53125 48.976562 189.453125 48.222656 C 189.378906 47.464844 189.269531 46.714844 189.121094 45.972656 C 188.972656 45.226562 188.789062 44.492188 188.570312 43.765625 C 188.347656 43.039062 188.09375 42.324219 187.800781 41.621094 C 187.511719 40.921875 187.1875 40.234375 186.828125 39.566406 C 186.472656 38.898438 186.082031 38.246094 185.660156 37.617188 C 185.238281 36.984375 184.785156 36.375 184.304688 35.789062 C 183.824219 35.203125 183.3125 34.640625 182.777344 34.101562 C 182.242188 33.566406 181.679688 33.058594 181.09375 32.574219 C 180.503906 32.09375 179.894531 31.640625 179.265625 31.21875 C 178.632812 30.796875 177.984375 30.410156 177.3125 30.050781 C 176.644531 29.691406 175.960938 29.367188 175.257812 29.078125 C 174.554688 28.789062 173.84375 28.53125 173.117188 28.3125 C 172.390625 28.089844 171.652344 27.90625 170.910156 27.757812 C 170.164062 27.609375 169.414062 27.5 168.660156 27.425781 C 167.902344 27.351562 167.148438 27.3125 166.386719 27.3125 L 50.492188 27.3125 C 49.734375 27.3125 48.976562 27.351562 48.222656 27.425781 C 47.464844 27.5 46.714844 27.609375 45.972656 27.757812 C 45.226562 27.90625 44.492188 28.089844 43.765625 28.3125 C 43.039062 28.53125 42.324219 28.789062 41.621094 29.078125 C 40.921875 29.367188 40.234375 29.691406 39.566406 30.050781 C 38.898438 30.410156 38.246094 30.796875 37.617188 31.21875 C 36.984375 31.640625 36.375 32.09375 35.789062 32.574219 C 35.203125 33.058594 34.640625 33.566406 34.101562 34.101562 C 33.566406 34.640625 33.058594 35.203125 32.574219 35.789062 C 32.09375 36.375 31.640625 36.984375 31.21875 37.617188 C 30.796875 38.246094 30.410156 38.898438 30.050781 39.566406 C 29.691406 40.234375 29.367188 40.921875 29.078125 41.621094 C 28.789062 42.324219 28.53125 43.039062 28.3125 43.765625 C 28.089844 44.492188 27.90625 45.226562 27.757812 45.972656 C 27.609375 46.714844 27.5 47.464844 27.425781 48.222656 C 27.351562 48.976562 27.3125 49.734375 27.3125 50.492188 L 27.3125 235.925781 C 27.3125 236.683594 27.351562 237.441406 27.425781 238.195312 C 27.5 238.953125 27.609375 239.703125 27.757812 240.445312 C 27.90625 241.191406 28.089844 241.925781 28.3125 242.652344 C 28.53125 243.378906 28.789062 244.09375 29.078125 244.792969 C 29.367188 245.496094 29.691406 246.179688 30.050781 246.851562 C 30.410156 247.519531 30.796875 248.171875 31.21875 248.800781 C 31.640625 249.433594 32.09375 250.042969 32.574219 250.628906 C 33.058594 251.214844 33.566406 251.777344 34.101562 252.316406 C 34.640625 252.851562 35.203125 253.359375 35.789062 253.84375 C 36.375 254.324219 36.984375 254.773438 37.617188 255.195312 C 38.246094 255.617188 38.898438 256.007812 39.566406 256.367188 C 40.234375 256.722656 40.921875 257.046875 41.621094 257.339844 C 42.324219 257.628906 43.039062 257.886719 43.765625 258.105469 C 44.492188 258.324219 45.226562 258.511719 45.972656 258.65625 C 46.714844 258.804688 47.464844 258.917969 48.222656 258.992188 C 48.976562 259.066406 49.734375 259.101562 50.492188 259.101562 L 108.441406 259.101562 C 109.203125 259.101562 109.953125 259.175781 110.703125 259.324219 C 111.449219 259.472656 112.171875 259.695312 112.875 259.984375 C 113.578125 260.277344 114.246094 260.632812 114.878906 261.054688 C 115.511719 261.480469 116.097656 261.960938 116.636719 262.496094 C 117.171875 263.035156 117.652344 263.621094 118.078125 264.253906 C 118.5 264.886719 118.855469 265.554688 119.148438 266.257812 C 119.4375 266.960938 119.660156 267.6875 119.808594 268.433594 C 119.957031 269.179688 120.03125 269.933594 120.03125 270.691406 C 120.03125 271.453125 119.957031 272.207031 119.808594 272.953125 C 119.660156 273.699219 119.4375 274.425781 119.148438 275.128906 C 118.855469 275.832031 118.5 276.5 118.078125 277.132812 C 117.652344 277.765625 117.171875 278.351562 116.636719 278.886719 C 116.097656 279.425781 115.511719 279.90625 114.878906 280.328125 C 114.246094 280.753906 113.578125 281.109375 112.875 281.398438 C 112.171875 281.691406 111.449219 281.910156 110.703125 282.058594 C 109.953125 282.207031 109.203125 282.28125 108.441406 282.28125 Z M 108.441406 282.28125 " fill-opacity="1" fill-rule="nonzero"/></g><path fill="#903eaf" d="M 85.261719 131.621094 C 84.121094 131.621094 82.988281 131.5625 81.851562 131.453125 C 80.71875 131.339844 79.59375 131.171875 78.476562 130.949219 C 77.363281 130.730469 76.257812 130.453125 75.167969 130.121094 C 74.078125 129.792969 73.007812 129.410156 71.957031 128.972656 C 70.902344 128.535156 69.875 128.050781 68.871094 127.515625 C 67.867188 126.976562 66.890625 126.390625 65.945312 125.757812 C 65 125.128906 64.085938 124.449219 63.203125 123.726562 C 62.324219 123.003906 61.480469 122.242188 60.675781 121.4375 C 59.871094 120.628906 59.105469 119.789062 58.386719 118.90625 C 57.664062 118.027344 56.984375 117.113281 56.351562 116.167969 C 55.71875 115.21875 55.136719 114.246094 54.597656 113.242188 C 54.0625 112.234375 53.574219 111.207031 53.140625 110.15625 C 52.703125 109.105469 52.320312 108.035156 51.988281 106.945312 C 51.660156 105.855469 51.382812 104.75 51.160156 103.632812 C 50.9375 102.515625 50.773438 101.390625 50.660156 100.257812 C 50.546875 99.125 50.492188 97.988281 50.492188 96.851562 L 50.492188 62.082031 C 50.492188 61.320312 50.566406 60.566406 50.714844 59.820312 C 50.863281 59.074219 51.082031 58.351562 51.375 57.648438 C 51.667969 56.945312 52.023438 56.277344 52.445312 55.644531 C 52.867188 55.011719 53.347656 54.425781 53.886719 53.886719 C 54.425781 53.347656 55.011719 52.867188 55.644531 52.445312 C 56.277344 52.023438 56.945312 51.667969 57.648438 51.375 C 58.351562 51.082031 59.074219 50.863281 59.820312 50.714844 C 60.566406 50.566406 61.320312 50.492188 62.082031 50.492188 C 62.84375 50.492188 63.597656 50.566406 64.34375 50.714844 C 65.089844 50.863281 65.8125 51.082031 66.515625 51.375 C 67.21875 51.667969 67.886719 52.023438 68.519531 52.445312 C 69.152344 52.867188 69.738281 53.347656 70.277344 53.886719 C 70.816406 54.425781 71.296875 55.011719 71.71875 55.644531 C 72.140625 56.277344 72.5 56.945312 72.789062 57.648438 C 73.082031 58.351562 73.300781 59.074219 73.449219 59.820312 C 73.597656 60.566406 73.671875 61.320312 73.671875 62.082031 L 73.671875 96.851562 C 73.671875 97.613281 73.746094 98.367188 73.894531 99.113281 C 74.042969 99.859375 74.261719 100.582031 74.554688 101.285156 C 74.84375 101.988281 75.203125 102.65625 75.625 103.289062 C 76.046875 103.921875 76.527344 104.507812 77.066406 105.046875 C 77.605469 105.582031 78.191406 106.0625 78.824219 106.488281 C 79.457031 106.910156 80.125 107.265625 80.828125 107.558594 C 81.527344 107.847656 82.253906 108.070312 83 108.21875 C 83.746094 108.367188 84.5 108.441406 85.261719 108.441406 C 86.023438 108.441406 86.777344 108.367188 87.523438 108.21875 C 88.269531 108.070312 88.992188 107.847656 89.695312 107.558594 C 90.398438 107.265625 91.066406 106.910156 91.699219 106.488281 C 92.332031 106.0625 92.917969 105.582031 93.457031 105.046875 C 93.996094 104.507812 94.476562 103.921875 94.898438 103.289062 C 95.320312 102.65625 95.675781 101.988281 95.96875 101.285156 C 96.261719 100.582031 96.480469 99.859375 96.628906 99.113281 C 96.777344 98.367188 96.851562 97.613281 96.851562 96.851562 L 96.851562 62.082031 C 96.851562 61.320312 96.925781 60.566406 97.074219 59.820312 C 97.222656 59.074219 97.441406 58.351562 97.734375 57.648438 C 98.023438 56.945312 98.382812 56.277344 98.804688 55.644531 C 99.226562 55.011719 99.707031 54.425781 100.246094 53.886719 C 100.785156 53.347656 101.367188 52.867188 102 52.445312 C 102.632812 52.023438 103.300781 51.667969 104.003906 51.375 C 104.707031 51.082031 105.433594 50.863281 106.179688 50.714844 C 106.925781 50.566406 107.679688 50.492188 108.441406 50.492188 C 109.203125 50.492188 109.953125 50.566406 110.703125 50.714844 C 111.449219 50.863281 112.171875 51.082031 112.875 51.375 C 113.578125 51.667969 114.246094 52.023438 114.878906 52.445312 C 115.511719 52.867188 116.097656 53.347656 116.636719 53.886719 C 117.171875 54.425781 117.652344 55.011719 118.078125 55.644531 C 118.5 56.277344 118.855469 56.945312 119.148438 57.648438 C 119.4375 58.351562 119.660156 59.074219 119.808594 59.820312 C 119.957031 60.566406 120.03125 61.320312 120.03125 62.082031 L 120.03125 96.851562 C 120.03125 97.988281 119.972656 99.125 119.863281 100.257812 C 119.75 101.390625 119.582031 102.515625 119.363281 103.632812 C 119.140625 104.75 118.863281 105.855469 118.53125 106.945312 C 118.203125 108.035156 117.820312 109.105469 117.382812 110.15625 C 116.949219 111.207031 116.460938 112.234375 115.925781 113.242188 C 115.386719 114.246094 114.804688 115.21875 114.171875 116.167969 C 113.539062 117.113281 112.859375 118.027344 112.136719 118.90625 C 111.414062 119.789062 110.652344 120.628906 109.847656 121.4375 C 109.042969 122.242188 108.199219 123.003906 107.316406 123.726562 C 106.4375 124.449219 105.523438 125.128906 104.578125 125.757812 C 103.628906 126.390625 102.65625 126.976562 101.652344 127.515625 C 100.648438 128.050781 99.617188 128.535156 98.566406 128.972656 C 97.515625 129.410156 96.445312 129.792969 95.355469 130.121094 C 94.265625 130.453125 93.160156 130.730469 92.042969 130.949219 C 90.925781 131.171875 89.800781 131.339844 88.667969 131.453125 C 87.535156 131.5625 86.398438 131.621094 85.261719 131.621094 Z M 85.261719 131.621094 " fill-opacity="1" fill-rule="nonzero"/><path fill="#0052cc" d="M 177.976562 282.28125 C 176.839844 282.28125 175.703125 282.226562 174.570312 282.113281 C 173.4375 282.003906 172.3125 281.835938 171.195312 281.613281 C 170.078125 281.390625 168.972656 281.117188 167.882812 280.785156 C 166.792969 280.453125 165.722656 280.070312 164.671875 279.636719 C 163.621094 279.199219 162.589844 278.714844 161.585938 278.175781 C 160.582031 277.640625 159.609375 277.054688 158.660156 276.421875 C 157.714844 275.789062 156.800781 275.113281 155.921875 274.390625 C 155.039062 273.667969 154.199219 272.902344 153.390625 272.097656 C 152.585938 271.292969 151.824219 270.449219 151.101562 269.570312 C 150.378906 268.691406 149.699219 267.777344 149.066406 266.832031 C 148.4375 265.882812 147.851562 264.90625 147.3125 263.902344 C 146.777344 262.898438 146.292969 261.871094 145.855469 260.820312 C 145.417969 259.765625 145.035156 258.695312 144.707031 257.605469 C 144.375 256.515625 144.097656 255.414062 143.875 254.296875 C 143.65625 253.179688 143.488281 252.054688 143.375 250.921875 C 143.265625 249.789062 143.207031 248.652344 143.207031 247.515625 L 143.207031 212.746094 C 143.207031 211.984375 143.28125 211.230469 143.429688 210.484375 C 143.578125 209.738281 143.800781 209.011719 144.089844 208.308594 C 144.382812 207.605469 144.738281 206.941406 145.160156 206.308594 C 145.585938 205.675781 146.066406 205.089844 146.601562 204.550781 C 147.140625 204.011719 147.726562 203.53125 148.359375 203.109375 C 148.992188 202.6875 149.660156 202.328125 150.363281 202.039062 C 151.066406 201.746094 151.789062 201.527344 152.539062 201.378906 C 153.285156 201.230469 154.039062 201.15625 154.796875 201.15625 C 155.558594 201.15625 156.3125 201.230469 157.058594 201.378906 C 157.804688 201.527344 158.53125 201.746094 159.234375 202.039062 C 159.9375 202.328125 160.605469 202.6875 161.238281 203.109375 C 161.871094 203.53125 162.453125 204.011719 162.992188 204.550781 C 163.53125 205.089844 164.011719 205.675781 164.433594 206.308594 C 164.855469 206.941406 165.214844 207.605469 165.503906 208.308594 C 165.796875 209.011719 166.015625 209.738281 166.164062 210.484375 C 166.3125 211.230469 166.386719 211.984375 166.386719 212.746094 L 166.386719 247.515625 C 166.386719 248.273438 166.460938 249.027344 166.609375 249.773438 C 166.757812 250.519531 166.980469 251.246094 167.269531 251.949219 C 167.5625 252.652344 167.917969 253.320312 168.339844 253.953125 C 168.761719 254.585938 169.242188 255.171875 169.78125 255.707031 C 170.320312 256.246094 170.90625 256.726562 171.539062 257.148438 C 172.171875 257.574219 172.839844 257.929688 173.542969 258.222656 C 174.246094 258.511719 174.96875 258.730469 175.714844 258.878906 C 176.460938 259.027344 177.214844 259.101562 177.976562 259.101562 C 178.738281 259.101562 179.492188 259.027344 180.238281 258.878906 C 180.984375 258.730469 181.710938 258.511719 182.414062 258.222656 C 183.117188 257.929688 183.78125 257.574219 184.414062 257.148438 C 185.046875 256.726562 185.632812 256.246094 186.171875 255.707031 C 186.710938 255.171875 187.191406 254.585938 187.613281 253.953125 C 188.035156 253.320312 188.394531 252.652344 188.683594 251.949219 C 188.976562 251.246094 189.195312 250.519531 189.34375 249.773438 C 189.492188 249.027344 189.566406 248.273438 189.566406 247.515625 L 189.566406 212.746094 C 189.566406 211.984375 189.640625 211.230469 189.789062 210.484375 C 189.9375 209.738281 190.15625 209.011719 190.449219 208.308594 C 190.738281 207.605469 191.097656 206.941406 191.519531 206.308594 C 191.941406 205.675781 192.421875 205.089844 192.960938 204.550781 C 193.5 204.011719 194.085938 203.53125 194.71875 203.109375 C 195.351562 202.6875 196.019531 202.328125 196.722656 202.039062 C 197.425781 201.746094 198.148438 201.527344 198.894531 201.378906 C 199.640625 201.230469 200.394531 201.15625 201.15625 201.15625 C 201.917969 201.15625 202.671875 201.230469 203.417969 201.378906 C 204.164062 201.527344 204.886719 201.746094 205.589844 202.039062 C 206.292969 202.328125 206.960938 202.6875 207.59375 203.109375 C 208.226562 203.53125 208.8125 204.011719 209.351562 204.550781 C 209.890625 205.089844 210.371094 205.675781 210.792969 206.308594 C 211.214844 206.941406 211.570312 207.605469 211.863281 208.308594 C 212.15625 209.011719 212.375 209.738281 212.523438 210.484375 C 212.671875 211.230469 212.746094 211.984375 212.746094 212.746094 L 212.746094 247.515625 C 212.746094 248.652344 212.691406 249.789062 212.578125 250.921875 C 212.464844 252.054688 212.300781 253.179688 212.078125 254.296875 C 211.855469 255.414062 211.578125 256.515625 211.25 257.605469 C 210.917969 258.695312 210.535156 259.765625 210.097656 260.820312 C 209.664062 261.871094 209.175781 262.898438 208.640625 263.902344 C 208.101562 264.90625 207.519531 265.882812 206.886719 266.832031 C 206.253906 267.777344 205.574219 268.691406 204.851562 269.570312 C 204.132812 270.449219 203.367188 271.292969 202.5625 272.097656 C 201.757812 272.902344 200.914062 273.667969 200.035156 274.390625 C 199.152344 275.113281 198.242188 275.789062 197.292969 276.421875 C 196.347656 277.054688 195.371094 277.640625 194.367188 278.175781 C 193.363281 278.714844 192.335938 279.199219 191.28125 279.636719 C 190.230469 280.070312 189.160156 280.453125 188.070312 280.785156 C 186.980469 281.117188 185.875 281.390625 184.761719 281.613281 C 183.644531 281.835938 182.519531 282.003906 181.386719 282.113281 C 180.25 282.226562 179.117188 282.28125 177.976562 282.28125 Z M 177.976562 282.28125 " fill-opacity="1" fill-rule="nonzero"/><path fill="#903eaf" d="M 154.796875 131.621094 C 154.039062 131.621094 153.285156 131.546875 152.539062 131.398438 C 151.789062 131.25 151.066406 131.027344 150.363281 130.738281 C 149.660156 130.445312 148.992188 130.089844 148.359375 129.667969 C 147.726562 129.242188 147.140625 128.761719 146.601562 128.226562 C 146.066406 127.6875 145.585938 127.101562 145.160156 126.46875 C 144.738281 125.835938 144.382812 125.167969 144.089844 124.464844 C 143.800781 123.761719 143.578125 123.035156 143.429688 122.289062 C 143.28125 121.542969 143.207031 120.789062 143.207031 120.03125 L 143.207031 62.082031 C 143.207031 61.320312 143.28125 60.566406 143.429688 59.820312 C 143.578125 59.074219 143.800781 58.351562 144.089844 57.648438 C 144.382812 56.945312 144.738281 56.277344 145.160156 55.644531 C 145.585938 55.011719 146.066406 54.425781 146.601562 53.886719 C 147.140625 53.347656 147.726562 52.867188 148.359375 52.445312 C 148.992188 52.023438 149.660156 51.667969 150.363281 51.375 C 151.066406 51.082031 151.789062 50.863281 152.539062 50.714844 C 153.285156 50.566406 154.039062 50.492188 154.796875 50.492188 C 155.558594 50.492188 156.3125 50.566406 157.058594 50.714844 C 157.804688 50.863281 158.53125 51.082031 159.234375 51.375 C 159.9375 51.667969 160.605469 52.023438 161.238281 52.445312 C 161.871094 52.867188 162.453125 53.347656 162.992188 53.886719 C 163.53125 54.425781 164.011719 55.011719 164.433594 55.644531 C 164.855469 56.277344 165.214844 56.945312 165.503906 57.648438 C 165.796875 58.351562 166.015625 59.074219 166.164062 59.820312 C 166.3125 60.566406 166.386719 61.320312 166.386719 62.082031 L 166.386719 120.03125 C 166.386719 120.789062 166.3125 121.542969 166.164062 122.289062 C 166.015625 123.035156 165.796875 123.761719 165.503906 124.464844 C 165.214844 125.167969 164.855469 125.835938 164.433594 126.46875 C 164.011719 127.101562 163.53125 127.6875 162.992188 128.226562 C 162.453125 128.761719 161.871094 129.242188 161.238281 129.667969 C 160.605469 130.089844 159.9375 130.445312 159.234375 130.738281 C 158.53125 131.027344 157.804688 131.25 157.058594 131.398438 C 156.3125 131.546875 155.558594 131.621094 154.796875 131.621094 Z M 154.796875 131.621094 " fill-opacity="1" fill-rule="nonzero"/><path fill="#0052cc" d="M 282.28125 282.28125 C 281.410156 282.277344 280.554688 282.175781 279.707031 281.980469 C 278.859375 281.78125 278.042969 281.492188 277.261719 281.113281 C 276.476562 280.730469 275.746094 280.265625 275.070312 279.722656 C 274.390625 279.175781 273.78125 278.5625 273.242188 277.878906 L 226.882812 219.929688 C 226.488281 219.332031 226.148438 218.699219 225.867188 218.039062 C 225.585938 217.375 225.367188 216.691406 225.214844 215.988281 C 225.0625 215.289062 224.972656 214.574219 224.953125 213.855469 C 224.929688 213.136719 224.976562 212.421875 225.089844 211.710938 C 225.199219 211 225.375 210.304688 225.617188 209.628906 C 225.859375 208.949219 226.160156 208.300781 226.523438 207.679688 C 226.886719 207.058594 227.304688 206.476562 227.773438 205.929688 C 228.246094 205.386719 228.761719 204.890625 229.324219 204.441406 C 229.886719 203.996094 230.488281 203.601562 231.125 203.265625 C 231.761719 202.929688 232.421875 202.65625 233.109375 202.445312 C 233.796875 202.230469 234.5 202.082031 235.214844 202 C 235.929688 201.917969 236.644531 201.902344 237.363281 201.957031 C 238.078125 202.007812 238.785156 202.125 239.484375 202.308594 C 240.179688 202.488281 240.851562 202.734375 241.5 203.042969 C 242.152344 203.351562 242.769531 203.71875 243.351562 204.140625 C 243.933594 204.5625 244.46875 205.035156 244.964844 205.558594 L 291.320312 263.507812 C 291.996094 264.359375 292.539062 265.289062 292.949219 266.292969 C 293.363281 267.296875 293.628906 268.339844 293.75 269.421875 C 293.867188 270.5 293.835938 271.574219 293.652344 272.644531 C 293.46875 273.71875 293.144531 274.742188 292.671875 275.722656 C 292.199219 276.699219 291.601562 277.59375 290.878906 278.40625 C 290.15625 279.214844 289.335938 279.910156 288.417969 280.492188 C 287.5 281.070312 286.519531 281.515625 285.476562 281.820312 C 284.433594 282.121094 283.367188 282.277344 282.28125 282.28125 Z M 282.28125 282.28125 " fill-opacity="1" fill-rule="nonzero"/><path fill="#0052cc" d="M 235.925781 282.28125 C 234.839844 282.277344 233.773438 282.121094 232.730469 281.820312 C 231.6875 281.515625 230.707031 281.070312 229.789062 280.492188 C 228.871094 279.910156 228.050781 279.214844 227.328125 278.40625 C 226.605469 277.59375 226.007812 276.699219 225.535156 275.722656 C 225.0625 274.742188 224.738281 273.71875 224.554688 272.644531 C 224.371094 271.574219 224.339844 270.5 224.457031 269.421875 C 224.578125 268.339844 224.84375 267.296875 225.257812 266.292969 C 225.667969 265.289062 226.210938 264.359375 226.882812 263.507812 L 273.242188 205.558594 C 273.6875 204.890625 274.195312 204.277344 274.765625 203.714844 C 275.339844 203.152344 275.960938 202.652344 276.636719 202.21875 C 277.3125 201.785156 278.027344 201.425781 278.777344 201.140625 C 279.527344 200.855469 280.296875 200.652344 281.089844 200.527344 C 281.882812 200.402344 282.679688 200.359375 283.480469 200.402344 C 284.28125 200.441406 285.070312 200.5625 285.847656 200.769531 C 286.625 200.972656 287.371094 201.253906 288.085938 201.613281 C 288.804688 201.972656 289.476562 202.402344 290.105469 202.902344 C 290.734375 203.402344 291.304688 203.960938 291.816406 204.578125 C 292.328125 205.195312 292.773438 205.859375 293.144531 206.570312 C 293.519531 207.28125 293.816406 208.019531 294.039062 208.792969 C 294.257812 209.5625 294.398438 210.347656 294.453125 211.148438 C 294.511719 211.949219 294.484375 212.746094 294.378906 213.542969 C 294.269531 214.339844 294.078125 215.113281 293.808594 215.871094 C 293.539062 216.625 293.195312 217.34375 292.777344 218.03125 C 292.359375 218.714844 291.871094 219.347656 291.320312 219.929688 L 244.964844 277.878906 C 244.425781 278.5625 243.816406 279.175781 243.136719 279.722656 C 242.460938 280.265625 241.730469 280.730469 240.945312 281.113281 C 240.164062 281.492188 239.347656 281.78125 238.5 281.980469 C 237.652344 282.175781 236.792969 282.277344 235.925781 282.28125 Z M 235.925781 282.28125 " fill-opacity="1" fill-rule="nonzero"/><path fill="#903eaf" d="M 177.976562 328.640625 L 154.796875 328.640625 C 154.039062 328.640625 153.285156 328.566406 152.539062 328.417969 C 151.789062 328.269531 151.066406 328.050781 150.363281 327.757812 C 149.660156 327.46875 148.992188 327.109375 148.359375 326.6875 C 147.726562 326.265625 147.140625 325.785156 146.601562 325.246094 C 146.066406 324.707031 145.585938 324.121094 145.160156 323.488281 C 144.738281 322.855469 144.382812 322.1875 144.089844 321.484375 C 143.800781 320.78125 143.578125 320.058594 143.429688 319.3125 C 143.28125 318.566406 143.207031 317.8125 143.207031 317.050781 C 143.207031 316.289062 143.28125 315.535156 143.429688 314.789062 C 143.578125 314.042969 143.800781 313.320312 144.089844 312.617188 C 144.382812 311.914062 144.738281 311.246094 145.160156 310.613281 C 145.585938 309.980469 146.066406 309.394531 146.601562 308.855469 C 147.140625 308.316406 147.726562 307.835938 148.359375 307.414062 C 148.992188 306.992188 149.660156 306.632812 150.363281 306.34375 C 151.066406 306.050781 151.789062 305.832031 152.539062 305.683594 C 153.285156 305.535156 154.039062 305.460938 154.796875 305.460938 L 177.976562 305.460938 C 178.738281 305.460938 179.492188 305.535156 180.238281 305.683594 C 180.984375 305.832031 181.710938 306.050781 182.414062 306.34375 C 183.117188 306.632812 183.78125 306.992188 184.414062 307.414062 C 185.046875 307.835938 185.632812 308.316406 186.171875 308.855469 C 186.710938 309.394531 187.191406 309.980469 187.613281 310.613281 C 188.035156 311.246094 188.394531 311.914062 188.683594 312.617188 C 188.976562 313.320312 189.195312 314.042969 189.34375 314.789062 C 189.492188 315.535156 189.566406 316.289062 189.566406 317.050781 C 189.566406 317.8125 189.492188 318.566406 189.34375 319.3125 C 189.195312 320.058594 188.976562 320.78125 188.683594 321.484375 C 188.394531 322.1875 188.035156 322.855469 187.613281 323.488281 C 187.191406 324.121094 186.710938 324.707031 186.171875 325.246094 C 185.632812 325.785156 185.046875 326.265625 184.414062 326.6875 C 183.78125 327.109375 183.117188 327.46875 182.414062 327.757812 C 181.710938 328.050781 180.984375 328.269531 180.238281 328.417969 C 179.492188 328.566406 178.738281 328.640625 177.976562 328.640625 Z M 177.976562 328.640625 " fill-opacity="1" fill-rule="nonzero"/><path fill="#903eaf" d="M 317.050781 328.640625 L 224.335938 328.640625 C 223.574219 328.640625 222.820312 328.566406 222.074219 328.417969 C 221.328125 328.269531 220.601562 328.050781 219.898438 327.757812 C 219.195312 327.46875 218.527344 327.109375 217.894531 326.6875 C 217.261719 326.265625 216.679688 325.785156 216.140625 325.246094 C 215.601562 324.707031 215.121094 324.121094 214.699219 323.488281 C 214.277344 322.855469 213.917969 322.1875 213.628906 321.484375 C 213.335938 320.78125 213.117188 320.058594 212.96875 319.3125 C 212.820312 318.566406 212.746094 317.8125 212.746094 317.050781 C 212.746094 316.289062 212.820312 315.535156 212.96875 314.789062 C 213.117188 314.042969 213.335938 313.320312 213.628906 312.617188 C 213.917969 311.914062 214.277344 311.246094 214.699219 310.613281 C 215.121094 309.980469 215.601562 309.394531 216.140625 308.855469 C 216.679688 308.316406 217.261719 307.835938 217.894531 307.414062 C 218.527344 306.992188 219.195312 306.632812 219.898438 306.34375 C 220.601562 306.050781 221.328125 305.832031 222.074219 305.683594 C 222.820312 305.535156 223.574219 305.460938 224.335938 305.460938 L 317.050781 305.460938 C 317.8125 305.460938 318.566406 305.535156 319.3125 305.683594 C 320.058594 305.832031 320.78125 306.050781 321.484375 306.34375 C 322.1875 306.632812 322.855469 306.992188 323.488281 307.414062 C 324.121094 307.835938 324.707031 308.316406 325.246094 308.855469 C 325.785156 309.394531 326.265625 309.980469 326.6875 310.613281 C 327.109375 311.246094 327.46875 311.914062 327.757812 312.617188 C 328.050781 313.320312 328.269531 314.042969 328.417969 314.789062 C 328.566406 315.535156 328.640625 316.289062 328.640625 317.050781 C 328.640625 317.8125 328.566406 318.566406 328.417969 319.3125 C 328.269531 320.058594 328.050781 320.78125 327.757812 321.484375 C 327.46875 322.1875 327.109375 322.855469 326.6875 323.488281 C 326.265625 324.121094 325.785156 324.707031 325.246094 325.246094 C 324.707031 325.785156 324.121094 326.265625 323.488281 326.6875 C 322.855469 327.109375 322.1875 327.46875 321.484375 327.757812 C 320.78125 328.050781 320.058594 328.269531 319.3125 328.417969 C 318.566406 328.566406 317.8125 328.640625 317.050781 328.640625 Z M 317.050781 328.640625 " fill-opacity="1" fill-rule="nonzero"/></svg>